<?xml version="1.0" encoding="UTF-8" standalone="no"?>
<!DOCTYPE svg PUBLIC "-//W3C//DTD SVG 1.0//EN" "http://www.w3.org/TR/2001/PR-SVG-20010719/DTD/svg10.dtd">
<svg width="36cm" height="17cm" viewBox="139 68 702 340" xmlns="http://www.w3.org/2000/svg" xmlns:xlink="http://www.w3.org/1999/xlink">
  <g>
    <polygon style="fill: #ffffff" points="328.329,69.1 345.471,69.1 356.9,80.5286 356.9,97.6714 345.471,109.1 328.329,109.1 316.9,97.6714 316.9,80.5286 "/>
    <polygon style="fill: none; fill-opacity:0; stroke-width: 1.9812; stroke: #000000" points="328.329,69.1 345.471,69.1 356.9,80.5286 356.9,97.6714 345.471,109.1 328.329,109.1 316.9,97.6714 316.9,80.5286 "/>
    <polygon style="fill: none; fill-opacity:0; stroke-width: 1.9812; stroke: #000000" points="328.329,69.1 345.471,69.1 356.9,80.5286 356.9,97.6714 345.471,109.1 328.329,109.1 316.9,97.6714 316.9,80.5286 "/>
  </g>
  <g>
    <polygon style="fill: #ffffff" points="333.329,300.1 350.471,300.1 361.9,311.529 361.9,328.671 350.471,340.1 333.329,340.1 321.9,328.671 321.9,311.529 "/>
    <polygon style="fill: none; fill-opacity:0; stroke-width: 1.9812; stroke: #000000" points="333.329,300.1 350.471,300.1 361.9,311.529 361.9,328.671 350.471,340.1 333.329,340.1 321.9,328.671 321.9,311.529 "/>
    <polygon style="fill: none; fill-opacity:0; stroke-width: 1.9812; stroke: #000000" points="333.329,300.1 350.471,300.1 361.9,311.529 361.9,328.671 350.471,340.1 333.329,340.1 321.9,328.671 321.9,311.529 "/>
  </g>
  <text font-size="12.7998" style="fill: #000000;text-anchor:start;font-family:sans-serif;font-style:normal;font-weight:normal" x="139.9" y="98.1">
    <tspan x="139.9" y="98.1">Akka.net Dev Branch</tspan>
  </text>
  <text font-size="12.7998" style="fill: #000000;text-anchor:start;font-family:sans-serif;font-style:normal;font-weight:normal" x="147.9" y="315.1">
    <tspan x="147.9" y="315.1">Forked Copy</tspan>
  </text>
  <g>
    <polygon style="fill: #ffffff" points="557.329,365.1 574.471,365.1 585.9,376.529 585.9,393.671 574.471,405.1 557.329,405.1 545.9,393.671 545.9,376.529 "/>
    <polygon style="fill: none; fill-opacity:0; stroke-width: 2; stroke: #000000" points="557.329,365.1 574.471,365.1 585.9,376.529 585.9,393.671 574.471,405.1 557.329,405.1 545.9,393.671 545.9,376.529 "/>
    <polygon style="fill: none; fill-opacity:0; stroke-width: 2; stroke: #000000" points="557.329,365.1 574.471,365.1 585.9,376.529 585.9,393.671 574.471,405.1 557.329,405.1 545.9,393.671 545.9,376.529 "/>
  </g>
  <g>
    <polygon style="fill: #ffffff" points="416.329,69.1 433.471,69.1 444.9,80.5286 444.9,97.6714 433.471,109.1 416.329,109.1 404.9,97.6714 404.9,80.5286 "/>
    <polygon style="fill: none; fill-opacity:0; stroke-width: 2; stroke: #000000" points="416.329,69.1 433.471,69.1 444.9,80.5286 444.9,97.6714 433.471,109.1 416.329,109.1 404.9,97.6714 404.9,80.5286 "/>
    <polygon style="fill: none; fill-opacity:0; stroke-width: 2; stroke: #000000" points="416.329,69.1 433.471,69.1 444.9,80.5286 444.9,97.6714 433.471,109.1 416.329,109.1 404.9,97.6714 404.9,80.5286 "/>
  </g>
  <text font-size="12.7998" style="fill: #000000;text-anchor:start;font-family:sans-serif;font-style:normal;font-weight:normal" x="333.9" y="93.1">
    <tspan x="333.9" y="93.1">A</tspan>
  </text>
  <text font-size="12.7998" style="fill: #000000;text-anchor:start;font-family:sans-serif;font-style:normal;font-weight:normal" x="337.852" y="321.052">
    <tspan x="337.852" y="321.052">A</tspan>
  </text>
  <text font-size="12.7998" style="fill: #000000;text-anchor:start;font-family:sans-serif;font-style:normal;font-weight:normal" x="147.9" y="363.1">
    <tspan x="147.9" y="363.1">Feature Branch</tspan>
  </text>
  <text font-size="12.7998" style="fill: #000000;text-anchor:start;font-family:sans-serif;font-style:normal;font-weight:normal" x="556.9" y="390.1">
    <tspan x="556.9" y="390.1">FB1</tspan>
  </text>
  <g>
    <polygon style="fill: #ffffff" points="640.329,367.1 657.471,367.1 668.9,378.529 668.9,395.671 657.471,407.1 640.329,407.1 628.9,395.671 628.9,378.529 "/>
    <polygon style="fill: none; fill-opacity:0; stroke-width: 2; stroke: #000000" points="640.329,367.1 657.471,367.1 668.9,378.529 668.9,395.671 657.471,407.1 640.329,407.1 628.9,395.671 628.9,378.529 "/>
    <polygon style="fill: none; fill-opacity:0; stroke-width: 2; stroke: #000000" points="640.329,367.1 657.471,367.1 668.9,378.529 668.9,395.671 657.471,407.1 640.329,407.1 628.9,395.671 628.9,378.529 "/>
  </g>
  <text font-size="12.7998" style="fill: #000000;text-anchor:start;font-family:sans-serif;font-style:normal;font-weight:normal" x="638.9" y="392.1">
    <tspan x="638.9" y="392.1">FB2</tspan>
  </text>
  <g>
    <polygon style="fill: #ffffff" points="723.329,365.1 740.471,365.1 751.9,376.529 751.9,393.671 740.471,405.1 723.329,405.1 711.9,393.671 711.9,376.529 "/>
    <polygon style="fill: none; fill-opacity:0; stroke-width: 2; stroke: #000000" points="723.329,365.1 740.471,365.1 751.9,376.529 751.9,393.671 740.471,405.1 723.329,405.1 711.9,393.671 711.9,376.529 "/>
    <polygon style="fill: none; fill-opacity:0; stroke-width: 2; stroke: #000000" points="723.329,365.1 740.471,365.1 751.9,376.529 751.9,393.671 740.471,405.1 723.329,405.1 711.9,393.671 711.9,376.529 "/>
  </g>
  <g>
    <polygon style="fill: #ffffff" points="499.329,69.1 516.471,69.1 527.9,80.5286 527.9,97.6714 516.471,109.1 499.329,109.1 487.9,97.6714 487.9,80.5286 "/>
    <polygon style="fill: none; fill-opacity:0; stroke-width: 2; stroke: #000000" points="499.329,69.1 516.471,69.1 527.9,80.5286 527.9,97.6714 516.471,109.1 499.329,109.1 487.9,97.6714 487.9,80.5286 "/>
    <polygon style="fill: none; fill-opacity:0; stroke-width: 2; stroke: #000000" points="499.329,69.1 516.471,69.1 527.9,80.5286 527.9,97.6714 516.471,109.1 499.329,109.1 487.9,97.6714 487.9,80.5286 "/>
  </g>
  <text font-size="12.7998" style="fill: #000000;text-anchor:start;font-family:sans-serif;font-style:normal;font-weight:normal" x="425.852" y="90.0524">
    <tspan x="425.852" y="90.0524">B</tspan>
  </text>
  <text font-size="12.7998" style="fill: #000000;text-anchor:start;font-family:sans-serif;font-style:normal;font-weight:normal" x="503.9" y="93.1">
    <tspan x="503.9" y="93.1">C</tspan>
  </text>
  <text font-size="12.7998" style="fill: #000000;text-anchor:start;font-family:sans-serif;font-style:normal;font-weight:normal" x="722.9" y="388.1">
    <tspan x="722.9" y="388.1">FB3</tspan>
  </text>
  <g>
    <line style="fill: none; fill-opacity:0; stroke-width: 2; stroke: #000000" x1="356.9" y1="89.1" x2="394.157" y2="89.6146"/>
    <polygon style="fill: #000000" points="401.656,89.7182 391.588,94.5796 394.157,89.6146 391.726,84.5806 "/>
    <polygon style="fill: none; fill-opacity:0; stroke-width: 2; stroke: #000000" points="401.656,89.7182 391.588,94.5796 394.157,89.6146 391.726,84.5806 "/>
  </g>
  <g>
    <line style="fill: none; fill-opacity:0; stroke-width: 2; stroke: #000000" x1="444.9" y1="89.1" x2="477.181" y2="89.5807"/>
    <polygon style="fill: #000000" points="484.68,89.6924 474.606,94.5429 477.181,89.5807 474.755,84.5441 "/>
    <polygon style="fill: none; fill-opacity:0; stroke-width: 2; stroke: #000000" points="484.68,89.6924 474.606,94.5429 477.181,89.5807 474.755,84.5441 "/>
  </g>
  <g>
    <line style="fill: none; fill-opacity:0; stroke-width: 2; stroke: #000000" x1="585.9" y1="385.1" x2="619.174" y2="386.648"/>
    <polygon style="fill: #000000" points="626.666,386.996 616.445,391.526 619.174,386.648 616.909,381.537 "/>
    <polygon style="fill: none; fill-opacity:0; stroke-width: 2; stroke: #000000" points="626.666,386.996 616.445,391.526 619.174,386.648 616.909,381.537 "/>
  </g>
  <g>
    <line style="fill: none; fill-opacity:0; stroke-width: 2; stroke: #000000" x1="668.9" y1="387.1" x2="702.174" y2="385.552"/>
    <polygon style="fill: #000000" points="709.666,385.204 699.909,390.663 702.174,385.552 699.445,380.674 "/>
    <polygon style="fill: none; fill-opacity:0; stroke-width: 2; stroke: #000000" points="709.666,385.204 699.909,390.663 702.174,385.552 699.445,380.674 "/>
  </g>
  <g>
    <polygon style="fill: #ffffff" points="423.329,299.1 440.471,299.1 451.9,310.529 451.9,327.671 440.471,339.1 423.329,339.1 411.9,327.671 411.9,310.529 "/>
    <polygon style="fill: none; fill-opacity:0; stroke-width: 2; stroke: #000000" points="423.329,299.1 440.471,299.1 451.9,310.529 451.9,327.671 440.471,339.1 423.329,339.1 411.9,327.671 411.9,310.529 "/>
    <polygon style="fill: none; fill-opacity:0; stroke-width: 2; stroke: #000000" points="423.329,299.1 440.471,299.1 451.9,310.529 451.9,327.671 440.471,339.1 423.329,339.1 411.9,327.671 411.9,310.529 "/>
  </g>
  <g>
    <polygon style="fill: #ffffff" points="506.329,299.1 523.471,299.1 534.9,310.529 534.9,327.671 523.471,339.1 506.329,339.1 494.9,327.671 494.9,310.529 "/>
    <polygon style="fill: none; fill-opacity:0; stroke-width: 2; stroke: #000000" points="506.329,299.1 523.471,299.1 534.9,310.529 534.9,327.671 523.471,339.1 506.329,339.1 494.9,327.671 494.9,310.529 "/>
    <polygon style="fill: none; fill-opacity:0; stroke-width: 2; stroke: #000000" points="506.329,299.1 523.471,299.1 534.9,310.529 534.9,327.671 523.471,339.1 506.329,339.1 494.9,327.671 494.9,310.529 "/>
  </g>
  <text font-size="12.7998" style="fill: #000000;text-anchor:start;font-family:sans-serif;font-style:normal;font-weight:normal" x="432.852" y="320.052">
    <tspan x="432.852" y="320.052">B</tspan>
  </text>
  <text font-size="12.7998" style="fill: #000000;text-anchor:start;font-family:sans-serif;font-style:normal;font-weight:normal" x="510.9" y="323.1">
    <tspan x="510.9" y="323.1">C</tspan>
  </text>
  <g>
    <line style="fill: none; fill-opacity:0; stroke-width: 2; stroke: #000000" x1="451.9" y1="319.1" x2="484.181" y2="319.581"/>
    <polygon style="fill: #000000" points="491.68,319.692 481.606,324.543 484.181,319.581 481.755,314.544 "/>
    <polygon style="fill: none; fill-opacity:0; stroke-width: 2; stroke: #000000" points="491.68,319.692 481.606,324.543 484.181,319.581 481.755,314.544 "/>
  </g>
  <g>
    <line style="fill: none; fill-opacity:0; stroke-width: 2; stroke: #000000" x1="361.9" y1="320.1" x2="402.166" y2="319.295"/>
    <polygon style="fill: #000000" points="409.664,319.145 399.766,324.344 402.166,319.295 399.566,314.346 "/>
    <polygon style="fill: none; fill-opacity:0; stroke-width: 2; stroke: #000000" points="409.664,319.145 399.766,324.344 402.166,319.295 399.566,314.346 "/>
  </g>
  <g>
    <line style="fill: none; fill-opacity:0; stroke-width: 2; stroke: #000000" x1="523.471" y1="339.1" x2="544.925" y2="362.32"/>
    <polygon style="fill: #000000" points="550.015,367.829 539.556,363.877 544.925,362.32 546.901,357.091 "/>
    <polygon style="fill: none; fill-opacity:0; stroke-width: 2; stroke: #000000" points="550.015,367.829 539.556,363.877 544.925,362.32 546.901,357.091 "/>
  </g>
  <g>
    <polygon style="fill: #ffffff" points="811.429,366 828.571,366 840,377.429 840,394.571 828.571,406 811.429,406 800,394.571 800,377.429 "/>
    <polygon style="fill: none; fill-opacity:0; stroke-width: 2; stroke: #000000" points="811.429,366 828.571,366 840,377.429 840,394.571 828.571,406 811.429,406 800,394.571 800,377.429 "/>
    <polygon style="fill: none; fill-opacity:0; stroke-width: 2; stroke: #000000" points="811.429,366 828.571,366 840,377.429 840,394.571 828.571,406 811.429,406 800,394.571 800,377.429 "/>
  </g>
  <text font-size="12.7998" style="fill: #000000;text-anchor:start;font-family:sans-serif;font-style:normal;font-weight:normal" x="811" y="390">
    <tspan x="811" y="390">FB4</tspan>
  </text>
  <g>
    <line style="fill: none; fill-opacity:0; stroke-width: 2; stroke: #000000" x1="751.9" y1="385.1" x2="790.266" y2="385.818"/>
    <polygon style="fill: #000000" points="797.764,385.958 787.673,390.77 790.266,385.818 787.86,380.772 "/>
    <polygon style="fill: none; fill-opacity:0; stroke-width: 2; stroke: #000000" points="797.764,385.958 787.673,390.77 790.266,385.818 787.86,380.772 "/>
  </g>
</svg>
