<?xml version="1.0" encoding="UTF-8" standalone="no"?>
<!DOCTYPE svg PUBLIC "-//W3C//DTD SVG 1.0//EN" "http://www.w3.org/TR/2001/PR-SVG-20010719/DTD/svg10.dtd">
<svg width="24cm" height="17cm" viewBox="139 68 464 340" xmlns="http://www.w3.org/2000/svg" xmlns:xlink="http://www.w3.org/1999/xlink">
  <g>
    <polygon style="fill: #ffffff" points="328.329,70.2 345.471,70.2 356.9,81.6286 356.9,98.7714 345.471,110.2 328.329,110.2 316.9,98.7714 316.9,81.6286 "/>
    <polygon style="fill: none; fill-opacity:0; stroke-width: 1.9812; stroke: #000000" points="328.329,70.2 345.471,70.2 356.9,81.6286 356.9,98.7714 345.471,110.2 328.329,110.2 316.9,98.7714 316.9,81.6286 "/>
    <polygon style="fill: none; fill-opacity:0; stroke-width: 1.9812; stroke: #000000" points="328.329,70.2 345.471,70.2 356.9,81.6286 356.9,98.7714 345.471,110.2 328.329,110.2 316.9,98.7714 316.9,81.6286 "/>
  </g>
  <g>
    <polygon style="fill: #ffffff" points="333.329,301.2 350.471,301.2 361.9,312.629 361.9,329.771 350.471,341.2 333.329,341.2 321.9,329.771 321.9,312.629 "/>
    <polygon style="fill: none; fill-opacity:0; stroke-width: 1.9812; stroke: #000000" points="333.329,301.2 350.471,301.2 361.9,312.629 361.9,329.771 350.471,341.2 333.329,341.2 321.9,329.771 321.9,312.629 "/>
    <polygon style="fill: none; fill-opacity:0; stroke-width: 1.9812; stroke: #000000" points="333.329,301.2 350.471,301.2 361.9,312.629 361.9,329.771 350.471,341.2 333.329,341.2 321.9,329.771 321.9,312.629 "/>
  </g>
  <text font-size="12.7998" style="fill: #000000;text-anchor:start;font-family:sans-serif;font-style:normal;font-weight:normal" x="139.9" y="99.2">
    <tspan x="139.9" y="99.2">Akka.net Dev Branch</tspan>
  </text>
  <text font-size="12.7998" style="fill: #000000;text-anchor:start;font-family:sans-serif;font-style:normal;font-weight:normal" x="147.9" y="316.2">
    <tspan x="147.9" y="316.2">Forked Copy</tspan>
  </text>
  <g>
    <polygon style="fill: #ffffff" points="557.329,366.2 574.471,366.2 585.9,377.629 585.9,394.771 574.471,406.2 557.329,406.2 545.9,394.771 545.9,377.629 "/>
    <polygon style="fill: none; fill-opacity:0; stroke-width: 2; stroke: #000000" points="557.329,366.2 574.471,366.2 585.9,377.629 585.9,394.771 574.471,406.2 557.329,406.2 545.9,394.771 545.9,377.629 "/>
    <polygon style="fill: none; fill-opacity:0; stroke-width: 2; stroke: #000000" points="557.329,366.2 574.471,366.2 585.9,377.629 585.9,394.771 574.471,406.2 557.329,406.2 545.9,394.771 545.9,377.629 "/>
  </g>
  <g>
    <polygon style="fill: #ffffff" points="416.329,70.2 433.471,70.2 444.9,81.6286 444.9,98.7714 433.471,110.2 416.329,110.2 404.9,98.7714 404.9,81.6286 "/>
    <polygon style="fill: none; fill-opacity:0; stroke-width: 2; stroke: #000000" points="416.329,70.2 433.471,70.2 444.9,81.6286 444.9,98.7714 433.471,110.2 416.329,110.2 404.9,98.7714 404.9,81.6286 "/>
    <polygon style="fill: none; fill-opacity:0; stroke-width: 2; stroke: #000000" points="416.329,70.2 433.471,70.2 444.9,81.6286 444.9,98.7714 433.471,110.2 416.329,110.2 404.9,98.7714 404.9,81.6286 "/>
  </g>
  <text font-size="12.7998" style="fill: #000000;text-anchor:start;font-family:sans-serif;font-style:normal;font-weight:normal" x="333.9" y="94.2">
    <tspan x="333.9" y="94.2">A</tspan>
  </text>
  <text font-size="12.7998" style="fill: #000000;text-anchor:start;font-family:sans-serif;font-style:normal;font-weight:normal" x="337.852" y="322.152">
    <tspan x="337.852" y="322.152">A</tspan>
  </text>
  <text font-size="12.7998" style="fill: #000000;text-anchor:start;font-family:sans-serif;font-style:normal;font-weight:normal" x="148.9" y="393.2">
    <tspan x="148.9" y="393.2">Feature Branch</tspan>
  </text>
  <text font-size="12.7998" style="fill: #000000;text-anchor:start;font-family:sans-serif;font-style:normal;font-weight:normal" x="556.9" y="391.2">
    <tspan x="556.9" y="391.2">FB</tspan>
  </text>
  <g>
    <polygon style="fill: #ffffff" points="499.329,70.2 516.471,70.2 527.9,81.6286 527.9,98.7714 516.471,110.2 499.329,110.2 487.9,98.7714 487.9,81.6286 "/>
    <polygon style="fill: none; fill-opacity:0; stroke-width: 2; stroke: #000000" points="499.329,70.2 516.471,70.2 527.9,81.6286 527.9,98.7714 516.471,110.2 499.329,110.2 487.9,98.7714 487.9,81.6286 "/>
    <polygon style="fill: none; fill-opacity:0; stroke-width: 2; stroke: #000000" points="499.329,70.2 516.471,70.2 527.9,81.6286 527.9,98.7714 516.471,110.2 499.329,110.2 487.9,98.7714 487.9,81.6286 "/>
  </g>
  <text font-size="12.7998" style="fill: #000000;text-anchor:start;font-family:sans-serif;font-style:normal;font-weight:normal" x="425.852" y="91.1524">
    <tspan x="425.852" y="91.1524">B</tspan>
  </text>
  <text font-size="12.7998" style="fill: #000000;text-anchor:start;font-family:sans-serif;font-style:normal;font-weight:normal" x="503.9" y="94.2">
    <tspan x="503.9" y="94.2">C</tspan>
  </text>
  <g>
    <line style="fill: none; fill-opacity:0; stroke-width: 2; stroke: #000000" x1="356.9" y1="90.2" x2="394.157" y2="90.7146"/>
    <polygon style="fill: #000000" points="401.656,90.8182 391.588,95.6796 394.157,90.7146 391.726,85.6806 "/>
    <polygon style="fill: none; fill-opacity:0; stroke-width: 2; stroke: #000000" points="401.656,90.8182 391.588,95.6796 394.157,90.7146 391.726,85.6806 "/>
  </g>
  <g>
    <line style="fill: none; fill-opacity:0; stroke-width: 2; stroke: #000000" x1="444.9" y1="90.2" x2="477.181" y2="90.6807"/>
    <polygon style="fill: #000000" points="484.68,90.7924 474.606,95.6429 477.181,90.6807 474.755,85.6441 "/>
    <polygon style="fill: none; fill-opacity:0; stroke-width: 2; stroke: #000000" points="484.68,90.7924 474.606,95.6429 477.181,90.6807 474.755,85.6441 "/>
  </g>
  <g>
    <polygon style="fill: #ffffff" points="423.329,300.2 440.471,300.2 451.9,311.629 451.9,328.771 440.471,340.2 423.329,340.2 411.9,328.771 411.9,311.629 "/>
    <polygon style="fill: none; fill-opacity:0; stroke-width: 2; stroke: #000000" points="423.329,300.2 440.471,300.2 451.9,311.629 451.9,328.771 440.471,340.2 423.329,340.2 411.9,328.771 411.9,311.629 "/>
    <polygon style="fill: none; fill-opacity:0; stroke-width: 2; stroke: #000000" points="423.329,300.2 440.471,300.2 451.9,311.629 451.9,328.771 440.471,340.2 423.329,340.2 411.9,328.771 411.9,311.629 "/>
  </g>
  <g>
    <polygon style="fill: #ffffff" points="506.329,300.2 523.471,300.2 534.9,311.629 534.9,328.771 523.471,340.2 506.329,340.2 494.9,328.771 494.9,311.629 "/>
    <polygon style="fill: none; fill-opacity:0; stroke-width: 2; stroke: #000000" points="506.329,300.2 523.471,300.2 534.9,311.629 534.9,328.771 523.471,340.2 506.329,340.2 494.9,328.771 494.9,311.629 "/>
    <polygon style="fill: none; fill-opacity:0; stroke-width: 2; stroke: #000000" points="506.329,300.2 523.471,300.2 534.9,311.629 534.9,328.771 523.471,340.2 506.329,340.2 494.9,328.771 494.9,311.629 "/>
  </g>
  <text font-size="12.7998" style="fill: #000000;text-anchor:start;font-family:sans-serif;font-style:normal;font-weight:normal" x="432.852" y="321.152">
    <tspan x="432.852" y="321.152">B</tspan>
  </text>
  <text font-size="12.7998" style="fill: #000000;text-anchor:start;font-family:sans-serif;font-style:normal;font-weight:normal" x="510.9" y="324.2">
    <tspan x="510.9" y="324.2">C</tspan>
  </text>
  <g>
    <line style="fill: none; fill-opacity:0; stroke-width: 2; stroke: #000000" x1="451.9" y1="320.2" x2="484.181" y2="320.681"/>
    <polygon style="fill: #000000" points="491.68,320.792 481.606,325.643 484.181,320.681 481.755,315.644 "/>
    <polygon style="fill: none; fill-opacity:0; stroke-width: 2; stroke: #000000" points="491.68,320.792 481.606,325.643 484.181,320.681 481.755,315.644 "/>
  </g>
  <g>
    <line style="fill: none; fill-opacity:0; stroke-width: 2; stroke: #000000" x1="361.9" y1="321.2" x2="402.166" y2="320.395"/>
    <polygon style="fill: #000000" points="409.664,320.245 399.766,325.444 402.166,320.395 399.566,315.446 "/>
    <polygon style="fill: none; fill-opacity:0; stroke-width: 2; stroke: #000000" points="409.664,320.245 399.766,325.444 402.166,320.395 399.566,315.446 "/>
  </g>
  <g>
    <line style="fill: none; fill-opacity:0; stroke-width: 2; stroke: #000000" x1="523.471" y1="340.2" x2="544.925" y2="363.42"/>
    <polygon style="fill: #000000" points="550.015,368.929 539.556,364.977 544.925,363.42 546.901,358.191 "/>
    <polygon style="fill: none; fill-opacity:0; stroke-width: 2; stroke: #000000" points="550.015,368.929 539.556,364.977 544.925,363.42 546.901,358.191 "/>
  </g>
  <g>
    <polygon style="fill: #ffffff" points="571.429,69.1 588.571,69.1 600,80.5286 600,97.6714 588.571,109.1 571.429,109.1 560,97.6714 560,80.5286 "/>
    <polygon style="fill: none; fill-opacity:0; stroke-width: 2; stroke: #000000" points="571.429,69.1 588.571,69.1 600,80.5286 600,97.6714 588.571,109.1 571.429,109.1 560,97.6714 560,80.5286 "/>
    <polygon style="fill: none; fill-opacity:0; stroke-width: 2; stroke: #000000" points="571.429,69.1 588.571,69.1 600,80.5286 600,97.6714 588.571,109.1 571.429,109.1 560,97.6714 560,80.5286 "/>
  </g>
  <g>
    <line style="fill: none; fill-opacity:0; stroke-width: 2; stroke: #000000" x1="527.9" y1="90.2" x2="550.27" y2="89.4334"/>
    <polygon style="fill: #000000" points="557.765,89.1766 547.942,94.5161 550.27,89.4334 547.6,84.522 "/>
    <polygon style="fill: none; fill-opacity:0; stroke-width: 2; stroke: #000000" points="557.765,89.1766 547.942,94.5161 550.27,89.4334 547.6,84.522 "/>
  </g>
  <text font-size="12.7998" style="fill: #000000;text-anchor:start;font-family:sans-serif;font-style:normal;font-weight:normal" x="566.952" y="93.0524">
    <tspan x="566.952" y="93.0524">D-FB</tspan>
  </text>
  <g>
    <polygon style="fill: #ffffff" points="573.429,299 590.571,299 602,310.429 602,327.571 590.571,339 573.429,339 562,327.571 562,310.429 "/>
    <polygon style="fill: none; fill-opacity:0; stroke-width: 2; stroke: #000000" points="573.429,299 590.571,299 602,310.429 602,327.571 590.571,339 573.429,339 562,327.571 562,310.429 "/>
    <polygon style="fill: none; fill-opacity:0; stroke-width: 2; stroke: #000000" points="573.429,299 590.571,299 602,310.429 602,327.571 590.571,339 573.429,339 562,327.571 562,310.429 "/>
  </g>
  <text font-size="12.7998" style="fill: #000000;text-anchor:start;font-family:sans-serif;font-style:normal;font-weight:normal" x="569.9" y="323.9">
    <tspan x="569.9" y="323.9">D-FB</tspan>
  </text>
  <g>
    <line style="fill: none; fill-opacity:0; stroke-width: 2; stroke: #000000" x1="534.9" y1="320.2" x2="552.273" y2="319.431"/>
    <polygon style="fill: #000000" points="559.766,319.099 549.997,324.536 552.273,319.431 549.555,314.546 "/>
    <polygon style="fill: none; fill-opacity:0; stroke-width: 2; stroke: #000000" points="559.766,319.099 549.997,324.536 552.273,319.431 549.555,314.546 "/>
  </g>
</svg>
